<svg width="640" height="640" viewBox="0 0 640 640" fill="none" xmlns="http://www.w3.org/2000/svg">
<path d="M480 150C502.091 150 520 167.909 520 190V210C520 232.091 502.091 250 480 250H160C137.909 250 120 232.091 120 210V190C120 167.909 137.909 150 160 150H480ZM465 180C456.716 180 450 186.716 450 195V205C450 213.284 456.716 220 465 220H475C483.284 220 490 213.284 490 205V195C490 186.716 483.284 180 475 180H465Z" fill="black"/>
<path d="M480 270C502.091 270 520 287.909 520 310V330C520 352.091 502.091 370 480 370H160C137.909 370 120 352.091 120 330V310C120 287.909 137.909 270 160 270H480ZM465 300C456.716 300 450 306.716 450 315V325C450 333.284 456.716 340 465 340H475C483.284 340 490 333.284 490 325V315C490 306.716 483.284 300 475 300H465Z" fill="black"/>
<path d="M480 390C502.091 390 520 407.909 520 430V450C520 472.091 502.091 490 480 490H160C137.909 490 120 472.091 120 450V430C120 407.909 137.909 390 160 390H480ZM465 420C456.716 420 450 426.716 450 435V445C450 453.284 456.716 460 465 460H475C483.284 460 490 453.284 490 445V435C490 426.716 483.284 420 475 420H465Z" fill="black"/>
</svg>
